# xmcd
#
# Track frame offsets: 
#        150
#        21690
#        40061
#        61526
#        82241
#        106766
#        130264
#        149993
#        174988
#        198191
#        223035
#        242221
#        261738
#
# Disc length: 3720 seconds
#
# Revision: 2
# Processed by: cddbd v1.5.2PL0 Copyright (c) Steve Scherf et al.
# Submitted via: ExactAudioCopyFreeDBPlugin 1.0
#
DISCID=c80e860d
DTITLE=小月 - DTS51缘起唐古拉
DYEAR=2011
DGENRE=DTS
TTITLE0=万物生
TTITLE1=姑娘我爱你
TTITLE2=高原红
TTITLE3=火苗
TTITLE4=陪你一起看草原
TTITLE5=卓玛
TTITLE6=水中月亮
TTITLE7=天路
TTITLE8=故乡情
TTITLE9=爱不在就放手
TTITLE10=我和草原有个约定
TTITLE11=紫竹调
TTITLE12=月光落地的声音
EXTD=
EXTT0=
EXTT1=
EXTT2=
EXTT3=
EXTT4=
EXTT5=
EXTT6=
EXTT7=
EXTT8=
EXTT9=
EXTT10=
EXTT11=
EXTT12=
PLAYORDER=
